<svg xmlns="http://www.w3.org/2000/svg" width="30" height="32" viewBox="0 0 30 32" fill="none">
<path d="M14.1237 29.7881C13.6631 29.0032 13.9364 27.9995 14.7342 27.5464L18.257 25.5455C19.0548 25.0923 20.075 25.3612 20.5356 26.1461L21.2484 27.3607C21.709 28.1456 21.4356 29.1492 20.6378 29.6023L17.115 31.6033C16.3172 32.0564 15.2971 31.7875 14.8365 31.0026L14.1237 29.7881Z" fill="#FF2E63"/>
<path fill-rule="evenodd" clip-rule="evenodd" d="M2.99481 32C1.34082 32 0 30.6809 0 29.0537L0 2.94629C0 1.3191 1.34082 0 2.99481 0C3.15974 0 3.32154 0.0131149 3.47922 0.0383423C3.85976 0.0868974 4.23707 0.208672 4.59013 0.409208L27.1145 13.203C27.7557 13.4308 28.3216 13.8741 28.6892 14.5004C29.5162 15.9096 29.0254 17.7115 27.593 18.5251L4.59013 31.5907C4.23837 31.7905 3.86255 31.9121 3.48343 31.961C3.32442 31.9867 3.1612 32 2.99481 32ZM5.98963 23.9916L20.0595 15.9999L5.98963 8.00829V23.9916Z" fill="#08D9D6"/>
</svg>